<svg width="20" height="20" viewBox="0 0 20 20" fill="none" xmlns="http://www.w3.org/2000/svg">
<path d="M9.9999 3.82922C9.0919 2.9943 7.90341 2.53092 6.6699 2.53088C6.01702 2.53156 5.37071 2.66135 4.76818 2.91277C4.16565 3.1642 3.61879 3.5323 3.15907 3.99588C1.19824 5.96505 1.19907 9.04505 3.16074 11.0059L9.27074 17.1159C9.4124 17.3651 9.68574 17.5259 9.9999 17.5259C10.1289 17.5246 10.2558 17.4931 10.3704 17.4339C10.4851 17.3748 10.5842 17.2895 10.6599 17.1851L16.8391 11.0059C18.8007 9.04422 18.8007 5.96505 16.8374 3.99255C16.3779 3.52981 15.8315 3.16246 15.2295 2.91162C14.6276 2.66078 13.982 2.53138 13.3299 2.53088C12.0964 2.53109 10.908 2.99444 9.9999 3.82922ZM15.6591 5.17088C16.9616 6.48005 16.9624 8.52505 15.6607 9.82755L9.9999 15.4884L4.33907 9.82755C3.0374 8.52505 3.03824 6.48005 4.3374 5.17422C4.97074 4.54422 5.79907 4.19755 6.6699 4.19755C7.54074 4.19755 8.36574 4.54422 8.99407 5.17255L9.41074 5.58922C9.48806 5.66667 9.5799 5.72812 9.68099 5.77005C9.78209 5.81197 9.89046 5.83355 9.9999 5.83355C10.1093 5.83355 10.2177 5.81197 10.3188 5.77005C10.4199 5.72812 10.5117 5.66667 10.5891 5.58922L11.0057 5.17255C12.2657 3.91505 14.4007 3.91838 15.6591 5.17088Z" fill="#DC3845"/>
</svg>
